<?xml version="1.0" encoding="UTF-8" standalone="no"?><!DOCTYPE svg PUBLIC "-//W3C//DTD SVG 1.1//EN" "http://www.w3.org/Graphics/SVG/1.1/DTD/svg11.dtd"><svg width="100%" height="100%" viewBox="0 0 225 192" version="1.1" xmlns="http://www.w3.org/2000/svg" xmlns:xlink="http://www.w3.org/1999/xlink" xml:space="preserve" xmlns:serif="http://www.serif.com/" style="fill-rule:evenodd;clip-rule:evenodd;stroke-linejoin:round;stroke-miterlimit:2;"><rect id="Logo_Monochrom" x="0" y="0" width="224.26" height="191.707" style="fill:none;"/><path id="Logo_Monochrom1" serif:id="Logo_Monochrom" d="M112.13,189.576l-109.603,-59.327l109.603,-128.119l109.603,128.119l-109.603,59.327Zm0,-184.116l-106.218,124.161l106.218,57.494l106.218,-57.494l-106.218,-124.161Zm0,179.169l-102.797,-55.642l102.797,-120.162l102.797,120.162l-102.797,55.642Zm7.107,-150.676l0,134.396l78.584,-42.536l-78.584,-91.859Zm2.187,5.92l72.976,85.304l-72.976,39.501l0,-124.805Zm-16.402,-5.92l-78.584,91.859l78.584,42.536l0,-134.396Zm-75.163,91.224l72.976,-85.304l0,124.805l-72.976,-39.501Z"/></svg>