<?xml version="1.0" encoding="UTF-8" standalone="no"?><!DOCTYPE svg PUBLIC "-//W3C//DTD SVG 1.1//EN" "http://www.w3.org/Graphics/SVG/1.1/DTD/svg11.dtd"><svg width="100%" height="100%" viewBox="0 0 224 193" version="1.1" xmlns="http://www.w3.org/2000/svg" xmlns:xlink="http://www.w3.org/1999/xlink" xml:space="preserve" xmlns:serif="http://www.serif.com/" style="fill-rule:evenodd;clip-rule:evenodd;stroke-linejoin:round;stroke-miterlimit:2;"><rect id="Logo" x="0" y="0" width="223.187" height="192.423" style="fill:none;"/><g id="Würfel"><path id="Rechts_Außen" d="M221.197,130.965l-109.603,59.327l0,-2.461l106.218,-57.494l-106.218,-124.161l0,-3.329l109.603,128.119Z" style="fill:#333;"/><path id="Rechts_Mitte" d="M214.39,129.702l-102.797,55.642l0,-175.805l102.797,120.162Zm-95.689,-95.034l0,134.396l78.584,-42.536l-78.584,-91.859Z" style="fill:#333;"/><path id="Rechts_Farbig" d="M120.888,40.589l72.976,85.304c0,-0 -72.976,39.501 -72.976,39.501c0,-0 0,-124.805 0,-124.805l0,0Z" style="fill:#49f6ff;"/><path id="Links_Außen" d="M111.593,2.846l0,3.329c-0,-0 -106.218,124.161 -106.218,124.161l106.218,57.494c0,-0 0,2.461 0,2.461c-0,0 -109.603,-59.327 -109.603,-59.327l109.603,-128.119Z"/><path id="Links_Mitte" d="M111.593,9.539l0,175.805l-102.797,-55.642l102.797,-120.162Zm-7.107,25.129l0,134.396l-78.584,-42.536l-0,-0l78.584,-91.859Z"/><path id="Links_Farbig" d="M29.323,125.892l72.976,-85.304l0,124.805l-72.976,-39.501Z" style="fill:#114c5a;"/><path id="Weiße-Flächen" serif:id="Weiße Flächen" d="M111.593,6.175l-106.218,124.161l106.218,57.494l106.218,-57.494l-106.218,-124.161Zm-102.797,123.527l102.797,-120.162l102.797,120.162l-102.797,55.642l-102.797,-55.642Zm109.904,-95.034l0,134.396l78.584,-42.536l-78.584,-91.859Zm-14.215,-0l0,134.396l-78.584,-42.536l-0,-0l78.584,-91.859Zm16.402,5.92l72.976,85.304c0,-0 -72.976,39.501 -72.976,39.501c0,-0 0,-124.805 0,-124.805l0,0Zm-91.564,85.304l72.976,-85.304l0,124.805l-72.976,-39.501Z" style="fill:#fff;"/><path id="Einschnitt_Links" d="M8.934,130.441l-0.274,-1.478l17.243,-2.436l-16.968,3.914Z" style="fill:#fff;"/><path id="Einschnitt_Unten" d="M111.593,187.222c-0.318,-0.762 -0.653,-1.517 -0.971,-2.278c-1.575,-3.767 -2.851,-7.104 -3.089,-7.726c-1.555,-4.065 -1.546,-4.068 -3.047,-8.154c0.537,1.05 1.08,2.096 1.617,3.145c0.231,0.451 1.968,3.85 2.857,5.652c1.651,3.348 2.569,5.464 2.634,5.606c0.392,-0.863 0.946,-2.182 3.094,-6.494c1.507,-3.025 1.521,-3.017 4.014,-7.909c-0.229,0.613 -0.447,1.229 -0.676,1.842c-0.228,0.612 -1.757,4.702 -2.898,7.63c-2.223,5.699 -3.455,8.501 -3.533,8.686Z" style="fill:#fff;"/><path id="Einschnitt_Rechts" d="M214.527,128.963l-0.274,1.478l-16.968,-3.914l17.243,2.436Z" style="fill:#fff;"/><path id="Einschnitt_Oben" d="M111.593,12.299c-0.068,0.228 -0.974,3.452 -2.624,8.646c-1.123,3.535 -4.122,12.626 -4.484,13.723c0.435,-1.784 0.848,-3.573 1.283,-5.356c0.371,-1.525 2.716,-11.148 4.849,-19.005c0.32,-1.177 0.656,-2.35 0.975,-3.527c0.071,0.257 1.319,4.644 3.544,13.402c0.385,1.514 0.767,3.029 1.142,4.546c1.265,5.111 2.229,9.152 2.421,9.941c-0.323,-0.987 -3.314,-10.124 -4.024,-12.341c-2.146,-6.693 -2.683,-8.666 -3.083,-10.028Z" style="fill:#fff;"/></g></svg>