<?xml version="1.0" encoding="UTF-8" standalone="no"?><!DOCTYPE svg PUBLIC "-//W3C//DTD SVG 1.1//EN" "http://www.w3.org/Graphics/SVG/1.1/DTD/svg11.dtd"><svg width="100%" height="100%" viewBox="0 0 1000 1000" version="1.1" xmlns="http://www.w3.org/2000/svg" xmlns:xlink="http://www.w3.org/1999/xlink" xml:space="preserve" xmlns:serif="http://www.serif.com/" style="fill-rule:evenodd;clip-rule:evenodd;stroke-linejoin:round;stroke-miterlimit:2;"><rect id="Logo_SVG" x="0" y="0" width="1000" height="1000" style="fill:none;"/><path id="Rechts_Dunkel" d="M500,916.125l0,-832.251l482.093,565.337l-482.093,266.913Z" style="fill:#333;"/><path id="Rechts_Farbig" d="M539.779,260.408l312.331,365.093c0,-0 -312.331,169.06 -312.331,169.06c0,-0 0,-534.154 0,-534.154l0,0Z" style="fill:#49f6ff;"/><path id="Links_Dunkel" d="M500,83.875l-0,832.251l-482.093,-266.913l482.093,-565.337Z"/><path id="Links_Farbig" d="M147.89,625.501l312.331,-365.093l0,534.154l-312.331,-169.06Z" style="fill:#114c5a;"/><path id="Weiße-Flächen" serif:id="Weiße Flächen" d="M500,113.122l454.604,531.401l-454.604,246.071l-454.604,-246.071l454.604,-531.401Zm-434.575,522.387l73.21,-13.587l321.476,-375.784l31.675,-109.017l-426.362,498.388Zm442.79,-498.386l31.692,109.036l321.458,375.763l73.21,13.587l-426.36,-498.386Zm424.459,508.628l-73.21,-13.587l-320.396,173.426l-31.529,70.281l425.135,-230.12Zm-440.216,230.119l-31.554,-70.295l-320.368,-173.411l-73.21,13.587l425.133,230.119Zm37.961,-625.03l-30.418,-104.655l-30.42,104.697l0,548.586l30.418,67.763l30.421,-67.81l0,-548.58Zm-377.529,374.662l305.331,164.06l-0,-524.154l-305.331,360.093Zm388.888,-360.093l-0,524.154l305.331,-164.06l-305.331,-360.093Z" style="fill:#fff;"/></svg>